<svg width="16" height="18" viewBox="0 0 16 18" fill="none" xmlns="http://www.w3.org/2000/svg">
<path d="M15.9167 11.5001C15.9149 10.9998 15.763 10.5117 15.4808 10.0987C15.1985 9.68567 14.7988 9.36684 14.3334 9.18342L15.8917 3.35009C15.9243 3.22586 15.9277 3.09578 15.9017 2.97002C15.8757 2.84425 15.8209 2.72621 15.7417 2.62509C15.6608 2.53034 15.5596 2.45496 15.4457 2.40448C15.3318 2.35401 15.208 2.32972 15.0834 2.33342H3.66675L3.39175 1.28342C3.34394 1.10585 3.23873 0.949076 3.09252 0.837535C2.94631 0.725994 2.76731 0.665949 2.58341 0.666756H0.916748V2.33342H1.94175L4.00841 10.0501C4.05725 10.2319 4.1662 10.3918 4.31752 10.5038C4.46884 10.6158 4.65361 10.6732 4.84175 10.6668H13.4167C13.6378 10.6668 13.8497 10.7546 14.006 10.9108C14.1623 11.0671 14.2501 11.2791 14.2501 11.5001C14.2501 11.7211 14.1623 11.9331 14.006 12.0893C13.8497 12.2456 13.6378 12.3334 13.4167 12.3334H2.58341C2.3624 12.3334 2.15044 12.4212 1.99416 12.5775C1.83788 12.7338 1.75008 12.9457 1.75008 13.1668C1.75008 13.3878 1.83788 13.5997 1.99416 13.756C2.15044 13.9123 2.3624 14.0001 2.58341 14.0001H3.56675C3.42969 14.3777 3.38565 14.7828 3.43836 15.181C3.49106 15.5793 3.63895 15.9589 3.86951 16.2879C4.10007 16.6168 4.40651 16.8854 4.76288 17.0708C5.11924 17.2562 5.51504 17.353 5.91675 17.353C6.31846 17.353 6.71426 17.2562 7.07062 17.0708C7.42699 16.8854 7.73342 16.6168 7.96398 16.2879C8.19454 15.9589 8.34244 15.5793 8.39514 15.181C8.44784 14.7828 8.4038 14.3777 8.26675 14.0001H10.2334C10.1087 14.3439 10.0609 14.711 10.0934 15.0753C10.126 15.4396 10.238 15.7923 10.4218 16.1086C10.6055 16.4249 10.8564 16.697 11.1568 16.9057C11.4571 17.1145 11.7997 17.2548 12.1601 17.3167C12.5206 17.3787 12.8903 17.3607 13.2431 17.2642C13.5959 17.1677 13.9233 16.995 14.202 16.7581C14.4808 16.5213 14.7042 16.2262 14.8565 15.8937C15.0088 15.5611 15.0863 15.1992 15.0834 14.8334C15.0819 14.4029 14.9669 13.9804 14.7501 13.6084C15.1064 13.3838 15.4002 13.0727 15.6042 12.7041C15.8081 12.3355 15.9157 11.9213 15.9167 11.5001ZM12.6584 9.00009H5.50008L4.11675 4.00009H14.0001L12.6584 9.00009ZM5.91675 15.6668C5.75193 15.6668 5.59081 15.6179 5.45377 15.5263C5.31673 15.4347 5.20992 15.3046 5.14685 15.1523C5.08378 15.0001 5.06727 14.8325 5.09943 14.6708C5.13158 14.5092 5.21095 14.3607 5.32749 14.2442C5.44404 14.1276 5.59252 14.0483 5.75417 14.0161C5.91582 13.9839 6.08338 14.0004 6.23565 14.0635C6.38792 14.1266 6.51807 14.2334 6.60964 14.3704C6.70121 14.5075 6.75008 14.6686 6.75008 14.8334C6.75008 15.0544 6.66228 15.2664 6.506 15.4227C6.34972 15.579 6.13776 15.6668 5.91675 15.6668ZM12.5834 15.6668C12.4186 15.6668 12.2575 15.6179 12.1204 15.5263C11.9834 15.4347 11.8766 15.3046 11.8135 15.1523C11.7504 15.0001 11.7339 14.8325 11.7661 14.6708C11.7982 14.5092 11.8776 14.3607 11.9942 14.2442C12.1107 14.1276 12.2592 14.0483 12.4208 14.0161C12.5825 13.9839 12.75 14.0004 12.9023 14.0635C13.0546 14.1266 13.1847 14.2334 13.2763 14.3704C13.3679 14.5075 13.4167 14.6686 13.4167 14.8334C13.4167 15.0544 13.329 15.2664 13.1727 15.4227C13.0164 15.579 12.8044 15.6668 12.5834 15.6668Z" fill="white"/>
</svg>
